<?xml version="1.0" encoding="UTF-8" standalone="no"?><!-- Generator: Gravit.io --><svg xmlns="http://www.w3.org/2000/svg" xmlns:xlink="http://www.w3.org/1999/xlink" style="isolation:isolate" viewBox="0 0 4320 2592" width="4320pt" height="2592pt"><defs><clipPath id="_clipPath_TsbVlpxM9TPVfvWLKpvBEDOeIVYo7590"><rect width="4320" height="2592"/></clipPath></defs><g clip-path="url(#_clipPath_TsbVlpxM9TPVfvWLKpvBEDOeIVYo7590)"><rect x="0" y="0" width="4320" height="432" transform="matrix(1,0,0,1,0,0)" fill="rgb(99,139,255)"/><rect x="0" y="432" width="4320" height="432" transform="matrix(1,0,0,1,0,0)" fill="rgb(142,171,255)"/><rect x="0" y="864" width="4320" height="432" transform="matrix(1,0,0,1,0,0)" fill="rgb(212,223,255)"/><rect x="0" y="1296" width="4320" height="432" transform="matrix(1,0,0,1,0,0)" fill="rgb(212,255,217)"/><rect x="0" y="1728" width="4320" height="432" transform="matrix(1,0,0,1,0,0)" fill="rgb(149,254,162)"/><rect x="0" y="2160" width="4320" height="432" transform="matrix(1,0,0,1,0,0)" fill="rgb(86,255,106)"/><path d=" M 1152 1296 C 1152 739.67 1603.67 288 2160 288 C 2716.33 288 3168 739.67 3168 1296 C 3168 1852.33 2716.33 2304 2160 2304 C 1603.67 2304 1152 1852.33 1152 1296 Z  M 1440 1296 C 1440 898.621 1762.621 576 2160 576 C 2557.379 576 2880 898.621 2880 1296 C 2880 1693.379 2557.379 2016 2160 2016 C 1762.621 2016 1440 1693.379 1440 1296 Z " fill-rule="evenodd" fill="rgb(255,255,255)"/></g></svg>