<?xml version="1.0" encoding="UTF-8" standalone="no"?><!-- Generator: Gravit.io --><svg xmlns="http://www.w3.org/2000/svg" xmlns:xlink="http://www.w3.org/1999/xlink" style="isolation:isolate" viewBox="0 0 2592 2592" width="2592pt" height="2592pt"><defs><clipPath id="_clipPath_1WzLLUYOM4oLtEsjQ8FN7w4uuzYO9pEO"><rect width="2592" height="2592"/></clipPath></defs><g clip-path="url(#_clipPath_1WzLLUYOM4oLtEsjQ8FN7w4uuzYO9pEO)"><path d=" M 446.329 2073.6 L -864 2073.6 L -864 2592 L 3456 2592 L 3456 2073.6 L 2145.671 2073.6 C 1934.993 2303.652 1632.22 2448 1296 2448 C 959.78 2448 657.007 2303.652 446.329 2073.6 Z " fill-rule="evenodd" fill="rgb(171,151,200)"/><path d=" M 173.329 1555.2 L -864 1555.2 L -864 2073.6 L 446.329 2073.6 C 314.445 1929.589 218.65 1751.994 173.329 1555.2 Z  M 2418.671 1555.2 L 3456 1555.2 L 3456 2073.6 L 2145.671 2073.6 C 2277.555 1929.589 2373.35 1751.994 2418.671 1555.2 Z " fill-rule="evenodd" fill="rgb(205,189,226)"/><path d=" M 173.329 1036.8 L -864 1036.8 L -864 1555.2 L 173.329 1555.2 C 154.14 1471.878 144 1385.114 144 1296 C 144 1206.886 154.14 1120.122 173.329 1036.8 Z  M 2418.671 1036.8 L 3456 1036.8 L 3456 1555.2 L 2418.671 1555.2 C 2437.86 1471.878 2448 1385.114 2448 1296 C 2448 1206.886 2437.86 1120.122 2418.671 1036.8 Z " fill-rule="evenodd" fill="rgb(255,255,255)"/><path d=" M 446.329 518.4 L -864 518.4 L -864 1036.8 L 173.329 1036.8 C 218.65 840.006 314.445 662.411 446.329 518.4 Z  M 2145.671 518.4 L 3456 518.4 L 3456 1036.8 L 2418.671 1036.8 C 2373.35 840.006 2277.555 662.411 2145.671 518.4 Z " fill-rule="evenodd" fill="rgb(131,222,223)"/><path d=" M 2145.671 518.4 L 3455.998 518.4 L 3455.998 0 L -863.998 0 L -863.998 518.4 L 446.329 518.4 C 657.007 288.348 959.78 144 1296 144 C 1632.22 144 1934.993 288.348 2145.671 518.4 Z " fill-rule="evenodd" fill="rgb(250,204,241)"/></g></svg>
